<svg xmlns="http://www.w3.org/2000/svg" width="269" height="180" fill="none" viewBox="0 0 269 180">
  <path fill="#000" fill-rule="evenodd" d="M88.596.758c-2.08.499-5.23 1.64-7 2.534-3.96 2-78.27 75.758-80.403 79.805C.147 85.084-.199 87.74.107 91.433l.45 5.42 38.41 38.447c30.866 30.895 39.491 38.982 43.911 41.166l5.5 2.719h158l5.724-2.81c6.89-3.383 12.046-9.124 14.795-16.472 1.983-5.3 2.028-7.146 1.758-72.078l-.277-66.64-2.971-5.365c-3.127-5.646-8.354-10.401-15.029-13.674-3.859-1.892-6.716-1.967-81-2.128-43.375-.095-78.652.229-80.782.74Zm-.218 15.847c-1.65 1.052-19.2 17.931-39 37.51l-36 35.595 36 35.565c19.8 19.56 37.35 36.427 39 37.483 2.89 1.848 5.782 1.919 78.849 1.922 84.023.004 80.465.276 84.635-6.47 1.968-3.184 2.016-4.834 2.012-68.645-.003-62.204-.095-65.531-1.882-68.462-4.066-6.668-.789-6.42-84.765-6.416-72.987.004-75.962.077-78.849 1.918Zm40.955 38.534c-1.35 1.35-2.455 3.38-2.455 4.511 0 1.258 4.955 7.346 12.75 15.664 7.012 7.483 12.75 13.95 12.75 14.37 0 .42-5.738 6.886-12.75 14.37-7.012 7.483-12.75 14.45-12.75 15.483 0 3.349 3.847 7.147 7.24 7.147 2.629 0 5.09-1.976 16.366-13.142l13.271-13.141 13.778 13.141c11.658 11.12 14.259 13.142 16.906 13.142 3.91 0 6.772-2.993 6.772-7.082 0-2.589-2.047-5.109-13.365-16.45L174.48 89.757l12.578-12.787c14.696-14.94 15.477-16.115 13.387-20.157-1.583-3.062-3.37-4.13-6.899-4.128-1.412.002-6.984 4.584-15.98 13.141l-13.812 13.14-13.271-13.141c-14.514-14.373-16.475-15.363-21.15-10.687Z" clip-rule="evenodd"/>
</svg>
