<svg xmlns="http://www.w3.org/2000/svg" width="239" height="194" fill="none" viewBox="0 0 239 194">
  <path fill="#000" fill-rule="evenodd" d="M226.571 1.56C225.191 2.94 225 8.397 225 46.379c0 48.356-.252 50.563-6.58 57.567-7.304 8.085.09 7.508-100.368 7.824-49.196.155-90.07.042-90.83-.249-.898-.345 8.14-10.283 25.846-28.42 14.975-15.338 27.661-28.663 28.191-29.61 1.269-2.268-.402-5.894-3.719-8.068-2.099-1.375-3.05-1.466-5.359-.51-1.544.64-18.416 16.796-37.494 35.903C2.584 112.968 0 115.81 0 118.989c0 3.178 2.584 6.021 34.687 38.173 19.078 19.107 35.95 35.263 37.494 35.902 2.309.957 3.26.866 5.359-.509 3.317-2.174 4.988-5.8 3.719-8.069-.53-.946-13.18-14.234-28.111-29.528C38.216 139.664 26 126.898 26 126.59c0-.308 41.738-.682 92.75-.831l92.75-.27 5.675-2.66c7.944-3.724 14.222-9.87 18.075-17.694l3.25-6.6.296-47.393c.272-43.466.155-47.55-1.405-49.273-2.118-2.341-8.602-2.526-10.82-.31Z" clip-rule="evenodd"/>
</svg>
